/* XPM */
static const char *down_arrow[] = {
/* columns rows colors chars-per-pixel */
"38 46 2 1 ",
"  c black",
". c None",
/* pixels */
"...............        ...............",
"...............        ...............",
"...............        ...............",
"...............        ...............",
"...............        ...............",
"...............        ...............",
"...............        ...............",
"...............        ...............",
"...............        ...............",
"...............        ...............",
"...............        ...............",
"...............        ...............",
"...............        ...............",
"...............        ...............",
"...............        ...............",
"...............        ...............",
" ..............        .............. ",
"  .............        .............  ",
"   ............        ............   ",
"    ...........        ...........    ",
"     ..........        ..........     ",
"      .........        .........      ",
"       ........        ........       ",
"        .......        .......        ",
"         ......        ......         ",
"          .....        .....          ",
"           ....        ....           ",
".           ...        ...           .",
"..           ..        ..           ..",
"...           .        .           ...",
"....                              ....",
".....                            .....",
"......                          ......",
".......                        .......",
"........                      ........",
".........                    .........",
"..........                  ..........",
"...........                ...........",
"............              ............",
".............            .............",
"..............          ..............",
"...............        ...............",
"................      ................",
".................    .................",
"..................  ..................",
"......................................"
};
