/* XPM */
static const char *escape[] = {
/* columns rows colors chars-per-pixel */
"60 60 2 1 ",
"  c black",
". c None",
/* pixels */
"............................................................",
"............................................................",
"............................................................",
"............................................................",
"........................            ........................",
".......................                .....................",
".......  ...............                 ...................",
".......       ..........                   .................",
".......           ......                     ...............",
".......               ..                      ..............",
".......                    ........            .............",
"........                       .......           ...........",
"........                          ......         ...........",
"........                         .........        ..........",
"........      ...               ...........        .........",
"........       .......         .............        ........",
".........      .......        ...............       ........",
".........      ......        .................       .......",
".........      ....         ...................      .......",
".........      ...         ....................       ......",
".........       .         ......................      ......",
"..........                ......................       .....",
"..........                 ......................      .....",
"..........                  .....................      .....",
"....     .                   ....................       ....",
"....                          ....................      ....",
"....      .         ..         ...................      ....",
"....      .        ....         ..................      ....",
"....      .       ......         .................      ....",
"....      .      ........         ................      ....",
"....      .     ..........         ...............      ....",
"....      ..   ............        ...............      ....",
"....      ..  ..............        ..............      ....",
"....      .. ................        .............      ....",
"....      ....................        ............      ....",
"....       ....................        ..........       ....",
".....      .....................        .........      .....",
".....      ......................        ........      .....",
".....       ......................        ......       .....",
"......      .......................        .....      ......",
"......       .......................        ...       ......",
".......      ........................      ....      .......",
".......       ........................    ....       .......",
"........       ........................  ....       ........",
"........        ............................        ........",
".........        ..........................        .........",
"..........        ........................        ..........",
"...........         ....................         ...........",
"...........           ................           ...........",
".............            ..........            .............",
"..............                                ..............",
"...............                              ...............",
".................                          .................",
"...................                      ...................",
".....................                  .....................",
"........................            ........................",
"............................................................",
"............................................................",
"............................................................",
"............................................................"
};
