/* XPM */
static const char *left_arrow[] = {
/* columns rows colors chars-per-pixel */
"46 38 2 1 ",
"  c black",
". c None",
/* pixels */
"...................           ................",
"..................           .................",
".................           ..................",
"................           ...................",
"...............           ....................",
"..............           .....................",
".............           ......................",
"............           .......................",
"...........           ........................",
"..........           .........................",
".........           ..........................",
"........           ...........................",
".......           ............................",
"......           .............................",
".....           ..............................",
"....                                          ",
"...                                           ",
"..                                            ",
".                                             ",
".                                             ",
"..                                            ",
"...                                           ",
"....                                          ",
".....           ..............................",
"......           .............................",
".......           ............................",
"........           ...........................",
".........           ..........................",
"..........           .........................",
"...........           ........................",
"............           .......................",
".............           ......................",
"..............           .....................",
"...............           ....................",
"................           ...................",
".................           ..................",
"..................           .................",
"...................           ................"
};
