/* XPM */
static const char *right_arrow[] = {
/* columns rows colors chars-per-pixel */
"45 38 2 1 ",
"  c black",
". c None",
/* pixels */
"...............            ..................",
"................            .................",
".................            ................",
"..................            ...............",
"...................            ..............",
"....................            .............",
".....................            ............",
"......................            ...........",
".......................            ..........",
"........................            .........",
".........................            ........",
"..........................            .......",
"...........................            ......",
"............................            .....",
".............................            ....",
"                                          ...",
"                                           ..",
"                                            .",
"                                             ",
"                                             ",
"                                            .",
"                                           ..",
"                                          ...",
".............................            ....",
"............................            .....",
"...........................            ......",
"..........................            .......",
".........................            ........",
"........................            .........",
".......................            ..........",
"......................            ...........",
".....................            ............",
"....................            .............",
"...................            ..............",
"..................            ...............",
".................            ................",
"................            .................",
"...............            .................."
};
