/* XPM */
static const char *tab[] = {
/* columns rows colors chars-per-pixel */
"63 48 2 1 ",
"  c black",
". c None",
/* pixels */
"................. .............................................",
"  .............   .............................................",
"  ............    .............................................",
"  ..........      .............................................",
"  ........        .............................................",
"  .......         .............................................",
"  .....           .............................................",
"  ...             .............................................",
"  .               .............................................",
"                                                               ",
"                                                               ",
"  ..              .............................................",
"  ....            .............................................",
"  .....           .............................................",
"  .......         .............................................",
"  .........       .............................................",
"  ..........      .............................................",
"  ............    .............................................",
"  ..............  .............................................",
"...............................................................",
"...............................................................",
"...............................................................",
"...............................................................",
"...............................................................",
"...............................................................",
"...............................................................",
"...............................................................",
"...............................................................",
"...............................................................",
".............................................  ..............  ",
".............................................    ............  ",
".............................................      ..........  ",
".............................................       .........  ",
".............................................         .......  ",
".............................................           .....  ",
".............................................            ....  ",
".............................................              ..  ",
"                                                               ",
"                                                               ",
".............................................               .  ",
".............................................             ...  ",
".............................................           .....  ",
".............................................         .......  ",
".............................................        ........  ",
".............................................      ..........  ",
".............................................    ............  ",
".............................................   .............  ",
"............................................. ................."
};
