/* XPM */
static const char *up_arrow[] = {
/* columns rows colors chars-per-pixel */
"38 45 2 1 ",
"  c black",
". c None",
/* pixels */
"..................  ..................",
".................    .................",
"................      ................",
"...............        ...............",
"..............          ..............",
".............            .............",
"............              ............",
"...........                ...........",
"..........                  ..........",
".........                    .........",
"........                      ........",
".......                        .......",
"......                          ......",
".....                            .....",
"....                              ....",
"...                                ...",
"..            .        .            ..",
".            ..        ..            .",
"            ...        ...            ",
"           ....        ....           ",
"          .....        .....          ",
"         ......        ......         ",
"        .......        .......        ",
"       ........        ........       ",
"      .........        .........      ",
"     ..........        ..........     ",
"    ...........        ...........    ",
"   ............        ............   ",
"  .............        .............  ",
" ..............        .............. ",
"...............        ...............",
"...............        ...............",
"...............        ...............",
"...............        ...............",
"...............        ...............",
"...............        ...............",
"...............        ...............",
"...............        ...............",
"...............        ...............",
"...............        ...............",
"...............        ...............",
"...............        ...............",
"...............        ...............",
"...............        ...............",
"...............        ..............."
};
